<?xml version="1.0" encoding="UTF-8" standalone="no"?>
<!-- Created with Inkscape (http://www.inkscape.org/) -->

<svg
   xmlns:dc="http://purl.org/dc/elements/1.1/"
   xmlns:cc="http://creativecommons.org/ns#"
   xmlns:rdf="http://www.w3.org/1999/02/22-rdf-syntax-ns#"
   xmlns:svg="http://www.w3.org/2000/svg"
   xmlns="http://www.w3.org/2000/svg"
   xmlns:sodipodi="http://sodipodi.sourceforge.net/DTD/sodipodi-0.dtd"
   xmlns:inkscape="http://www.inkscape.org/namespaces/inkscape"
   width="13.242756mm"
   height="7.2372231mm"
   viewBox="0 0 13.242756 7.2372231"
   version="1.1"
   id="svg8"
   inkscape:version="0.92.4 (5da689c313, 2019-01-14)"
   sodipodi:docname="nxt alt.svg">
  <defs
     id="defs2" />
  <sodipodi:namedview
     id="base"
     pagecolor="#000000"
     bordercolor="#666666"
     borderopacity="1.0"
     inkscape:pageopacity="1"
     inkscape:pageshadow="2"
     inkscape:zoom="4"
     inkscape:cx="-16.372526"
     inkscape:cy="-6.8139154"
     inkscape:document-units="mm"
     inkscape:current-layer="layer1"
     showgrid="false"
     fit-margin-top="0"
     fit-margin-left="0"
     fit-margin-right="0"
     fit-margin-bottom="0"
     inkscape:window-width="1920"
     inkscape:window-height="1017"
     inkscape:window-x="-8"
     inkscape:window-y="-8"
     inkscape:window-maximized="1" />
  <metadata
     id="metadata5">
    <rdf:RDF>
      <cc:Work
         rdf:about="">
        <dc:format>image/svg+xml</dc:format>
        <dc:type
           rdf:resource="http://purl.org/dc/dcmitype/StillImage" />
        <dc:title></dc:title>
      </cc:Work>
    </rdf:RDF>
  </metadata>
  <g
     inkscape:label="Layer 1"
     inkscape:groupmode="layer"
     id="layer1"
     transform="translate(-0.16912068,-2.5823199)">
    <g
       id="g89"
       style="fill:#ffffff">
      <path
         d="M 2.3226185,6.4007384 C 2.4504002,5.6565978 2.9652854,5.2206366 3.6154688,5.2206366 c 0.6464252,0 0.9546046,0.420928 0.8380978,1.1274858 L 3.8860654,9.7380962 H 5.4870952 L 6.1034541,6.0624927 C 6.3289512,4.713268 5.6712512,3.8902034 4.472358,3.8902034 c -0.8606475,0 -1.5559303,0.4171698 -1.9204841,1.0936612 H 2.4879831 L 2.6533476,3.9653691 H 1.1312419 L 0.16912068,9.7380962 H 1.7663922 Z"
         style="font-style:italic;font-variant:normal;font-weight:bold;font-stretch:normal;font-size:10.58333302px;line-height:1.25;font-family:Inter;-inkscape-font-specification:'Inter Bold Italic';letter-spacing:-1.71449995px;word-spacing:0px;fill:#ffffff;fill-opacity:1;stroke:none;stroke-width:0.26458332"
         id="path53"
         inkscape:connector-curvature="0" />
      <path
         d="M 7.316659,3.9653691 5.6337806,3.93029 6.8355984,6.8517327 4.6407595,9.7380962 H 6.2944053 L 7.7451036,7.7424464 8.5531351,9.7380962 H 10.187989 L 8.9515134,6.8517327 11.105011,3.9653691 H 9.4626403 L 8.0382499,5.9835687 Z"
         style="font-style:italic;font-variant:normal;font-weight:bold;font-stretch:normal;font-size:10.58333302px;line-height:1.25;font-family:Inter;-inkscape-font-specification:'Inter Bold Italic';letter-spacing:-1.71449995px;word-spacing:0px;fill:#ffffff;fill-opacity:1;stroke:none;stroke-width:0.26458332"
         id="path55"
         inkscape:connector-curvature="0"
         sodipodi:nodetypes="ccccccccccccc" />
      <path
         d="M 13.411877,3.9653691 H 12.321974 L 12.55123,2.5823199 H 10.9502 L 10.720945,3.9653691 H 9.9354629 L 9.7325154,5.1680206 h 0.7892396 l -0.496093,3.0066287 c -0.2029477,1.1274858 0.473544,1.6874704 1.649887,1.6423709 0.413412,-0.011275 0.717833,-0.093957 0.898231,-0.1503314 L 12.51365,8.4753122 c -0.08268,0.015033 -0.255563,0.052616 -0.405895,0.052616 -0.319454,0 -0.52616,-0.1202652 -0.450994,-0.5637429 l 0.466027,-2.7961647 h 1.089903 z"
         style="font-style:italic;font-variant:normal;font-weight:bold;font-stretch:normal;font-size:10.58333302px;line-height:1.25;font-family:Inter;-inkscape-font-specification:'Inter Bold Italic';letter-spacing:-1.71449995px;word-spacing:0px;fill:#ffffff;fill-opacity:1;stroke:none;stroke-width:0.26458332"
         id="path57"
         inkscape:connector-curvature="0" />
    </g>
    <path
       style="fill:#ff0000;stroke:#ff0000;stroke-width:0.0625"
       d="m 21.663645,31.193913 c 0.01944,-0.09453 0.364463,-2.126563 0.766724,-4.515625 l 0.731384,-4.34375 0.0039,-1.21875 c 0.0025,-0.79946 -0.02563,-1.364856 -0.08187,-1.643435 -0.04715,-0.233576 -0.07417,-0.436246 -0.06004,-0.450376 0.02613,-0.02613 2.802761,6.772209 2.802284,6.861156 -3.23e-4,0.06016 -4.119552,5.482655 -4.164928,5.482655 -0.01802,0 -0.01686,-0.07734 0.0026,-0.171875 z"
       id="path76"
       inkscape:connector-curvature="0"
       transform="scale(0.26458333)" />
  </g>
</svg>
